<svg id="Layer_1" data-name="Layer 1" xmlns="http://www.w3.org/2000/svg" viewBox="0 0 350 350"><defs><style>.cls-1{fill:#7cb342;}.cls-2{fill:#43a047;}</style></defs><title>logo</title><path class="cls-1" d="M254.56,95,243,59.39,192.11,79.74l4.17-53.66H152.33l6,53.66-51.8-20.81L95.44,94.54l56.43,13.88L112.09,151.9l34.23,22.2,27.3-43.48,29.13,43.94,32.84-24.05-37.46-42.09Z"/><path class="cls-1" d="M198.88,259.49l39.66-39.92-23.72-24L174.9,235.51,135,195.59l-24.5,24.25L150.4,260l-39.66,39.66,24,24,38-38.27,1.64-1.65,40.19,40.19,24.24-24.51Z"/><path class="cls-2" d="M178.37,287.62l-.18-.07-3.82-3.82-1.64,1.65L138.62,271.8,150.38,260Z"/></svg>